<svg width="53" height="53" viewBox="0 0 53 53" fill="none" xmlns="http://www.w3.org/2000/svg">
<path d="M6.68193 7.20361C5.52629 7.20361 4.59589 8.13404 4.59589 9.28966V35.3663C4.59589 36.5219 5.52632 37.4523 6.68193 37.4523H46.317C47.4727 37.4523 48.4031 36.5219 48.4031 35.3663V9.28966C48.4031 8.13401 47.4726 7.20361 46.317 7.20361H6.68193ZM25.9783 14.5051C28.6329 14.4877 31.241 16.3506 31.7149 19.7205C34.3153 19.7205 36.4087 22.0464 36.4087 24.9359C36.4087 27.8251 34.3153 30.1514 31.7149 30.1514H21.2847C18.6843 30.1514 16.5909 27.8255 16.5909 24.9359C16.5909 22.4395 18.0902 20.2389 20.1925 19.7205C20.4011 16.7351 22.9377 14.5051 25.9781 14.5051H25.9783ZM22.849 38.4948V42.667H30.1505V38.4948H22.849ZM19.7197 43.7103C19.1435 43.7103 18.6765 44.1773 18.6765 44.7535C18.6765 45.3297 19.1435 45.7967 19.7197 45.7967H33.2792C33.8554 45.7967 34.3225 45.3297 34.3225 44.7535C34.3225 44.1773 33.8554 43.7103 33.2792 43.7103H19.7197Z" fill="#028F62"/>
</svg>
