<svg width="53" height="53" viewBox="0 0 53 53" fill="none" xmlns="http://www.w3.org/2000/svg">
<path d="M2.86859 33.8341H14.277C14.7275 33.8341 15.0918 33.4698 15.0918 33.0194V19.9816C15.0918 19.5311 14.7275 19.1668 14.277 19.1668L2.86859 19.1664C2.41813 19.1664 2.0538 19.5307 2.0538 19.9812V33.019C2.0534 33.4698 2.41772 33.8341 2.86859 33.8341ZM3.68337 20.7963H13.462V32.2048H3.68337V20.7963Z" fill="#028F62"/>
<path d="M2.86842 16.722H14.2769C14.7273 16.722 15.0917 16.3576 15.0917 15.9072V2.86939C15.0917 2.41893 14.7273 2.0546 14.2769 2.0546L2.86842 2.0542C2.41756 2.0542 2.05324 2.41852 2.05324 2.86938V15.9072C2.05324 16.3576 2.41756 16.722 2.86842 16.722ZM3.6832 3.68417H13.4618V15.0926H3.6832V3.68417Z" fill="#028F62"/>
<path d="M2.86859 50.9463H14.277C14.7275 50.9463 15.0918 50.582 15.0918 50.1315V37.0938C15.0918 36.6433 14.7275 36.279 14.277 36.279L2.86859 36.2786C2.41813 36.2786 2.0538 36.6429 2.0538 37.0933V50.1311C2.0534 50.582 2.41772 50.9463 2.86859 50.9463ZM3.68337 37.9085H13.462V49.317H3.68337V37.9085Z" fill="#028F62"/>
<path d="M5.31242 5.3125H11.8315V6.94204H5.31242V5.3125Z" fill="#028F62"/>
<path d="M5.31242 8.57214H11.8315V10.2017H5.31242V8.57214Z" fill="#028F62"/>
<path d="M5.31242 11.8319H11.8315V13.4615H5.31242V11.8319Z" fill="#028F62"/>
<path d="M5.31242 22.4257H11.8315V24.0552H5.31242V22.4257Z" fill="#028F62"/>
<path d="M5.31242 25.6843H11.8315V27.3139H5.31242V25.6843Z" fill="#028F62"/>
<path d="M5.31242 28.9441H11.8315V30.5736H5.31242V28.9441Z" fill="#028F62"/>
<path d="M5.31242 39.5378H11.8315V41.1674H5.31242V39.5378Z" fill="#028F62"/>
<path d="M5.31242 42.7976H11.8315V44.4272H5.31242V42.7976Z" fill="#028F62"/>
<path d="M5.31242 46.0573H11.8315V47.6868H5.31242V46.0573Z" fill="#028F62"/>
<path d="M40.3525 15.9062H37.093C36.6425 15.9062 36.2782 16.2706 36.2782 16.721V20.7953C36.2782 21.2458 36.6425 21.6101 37.093 21.6101H40.3525C40.8029 21.6101 41.1673 21.2458 41.1673 20.7953V16.721C41.1673 16.2702 40.8029 15.9062 40.3525 15.9062ZM39.5373 19.9805H37.9078V17.5358H39.5373V19.9805Z" fill="#028F62"/>
<path d="M42.7975 15.9062H44.4271V21.6105H42.7975V15.9062Z" fill="#028F62"/>
<path d="M50.1316 15.9062H46.8721C46.4216 15.9062 46.0573 16.2706 46.0573 16.721V20.7953C46.0573 21.2458 46.4216 21.6101 46.8721 21.6101H50.1316C50.582 21.6101 50.9464 21.2458 50.9464 20.7953V16.721C50.9464 16.2702 50.582 15.9062 50.1316 15.9062ZM49.3164 19.9805H47.6869V17.5358H49.3164V19.9805Z" fill="#028F62"/>
<path d="M37.9084 23.2404H39.538V28.9446H37.9084V23.2404Z" fill="#028F62"/>
<path d="M41.1682 24.055V28.1293C41.1682 28.5797 41.5325 28.9441 41.983 28.9441H45.2425C45.6929 28.9441 46.0572 28.5797 46.0572 28.1293V24.055C46.0572 23.6046 45.6929 23.2402 45.2425 23.2402H41.983C41.5325 23.2402 41.1682 23.6042 41.1682 24.055ZM42.7977 24.8698H44.4273V27.3145H42.7977V24.8698Z" fill="#028F62"/>
<path d="M47.6866 23.2404H49.3161V28.9446H47.6866V23.2404Z" fill="#028F62"/>
<path d="M36.2781 35.4635C36.2781 35.914 36.6424 36.2783 37.0929 36.2783H40.3524C40.8028 36.2783 41.1671 35.914 41.1671 35.4635V31.3892C41.1671 30.9388 40.8028 30.5745 40.3524 30.5745H37.0929C36.6424 30.5745 36.2781 30.9388 36.2781 31.3892V35.4635ZM37.908 32.204H39.5376V34.6487H37.908V32.204Z" fill="#028F62"/>
<path d="M42.7975 30.5745H44.4271V36.2787H42.7975V30.5745Z" fill="#028F62"/>
<path d="M50.1316 30.5745H46.8721C46.4216 30.5745 46.0573 30.9388 46.0573 31.3892V35.4635C46.0573 35.914 46.4216 36.2783 46.8721 36.2783H50.1316C50.582 36.2783 50.9464 35.914 50.9464 35.4635V31.3892C50.9464 30.9388 50.582 30.5745 50.1316 30.5745ZM49.3164 34.6487H47.6869V32.204H49.3164V34.6487Z" fill="#028F62"/>
<path d="M27.354 18.1007L25.5016 23.8454L20.7573 9.13691C20.6473 8.80048 20.3343 8.57202 19.9809 8.57202H16.7214V10.2016H19.3869L24.382 25.6844H16.7214V27.3139H24.382L19.3869 42.7968H16.7214V44.4263H19.9809C20.3347 44.4263 20.6473 44.1983 20.7569 43.8614L25.5012 29.1529L27.3536 34.8976C27.4632 35.2348 27.7758 35.4629 28.1296 35.4629H31.8667L30.8129 36.5167L31.9653 37.6691L34.4101 35.2244C34.7287 34.9058 34.7287 34.3906 34.4101 34.0719L31.9653 31.6272L30.8129 32.7797L31.8667 33.8334H28.7236L26.3581 26.4996L28.7236 19.1657H31.8667L30.8129 20.2195L31.9653 21.3719L34.4101 18.9272C34.7287 18.6086 34.7287 18.0934 34.4101 17.7748L31.9653 15.33L30.8129 16.4825L31.8667 17.5358H28.1296C27.7758 17.5358 27.4632 17.7639 27.354 18.1007Z" fill="#028F62"/>
</svg>
