<svg width="53" height="53" viewBox="0 0 53 53" fill="none" xmlns="http://www.w3.org/2000/svg">
<path d="M46.5572 18.3522C46.5572 18.797 46.1965 19.1581 45.7513 19.1581C45.3061 19.1581 44.9454 18.797 44.9454 18.3522C44.9454 17.907 45.3061 17.5459 45.7513 17.5459C46.1965 17.5459 46.5572 17.907 46.5572 18.3522Z" fill="#028F62"/>
<path d="M43.7892 19.2984C43.7892 19.7432 43.4281 20.1042 42.9829 20.1042C42.5381 20.1042 42.177 19.7432 42.177 19.2984C42.177 18.8532 42.5381 18.4921 42.9829 18.4921C43.4281 18.4921 43.7892 18.8532 43.7892 19.2984Z" fill="#028F62"/>
<path d="M41.0119 19.8854C41.0119 20.3306 40.6508 20.6912 40.2056 20.6912C39.7608 20.6912 39.3997 20.3306 39.3997 19.8854C39.3997 19.4402 39.7608 19.0795 40.2056 19.0795C40.6508 19.0795 41.0119 19.4402 41.0119 19.8854Z" fill="#028F62"/>
<path d="M46.5572 27.0786C46.5572 27.5234 46.1965 27.8845 45.7513 27.8845C45.3061 27.8845 44.9454 27.5234 44.9454 27.0786C44.9454 26.6334 45.3061 26.2723 45.7513 26.2723C46.1965 26.2723 46.5572 26.6334 46.5572 27.0786Z" fill="#028F62"/>
<path d="M43.7892 28.0331C43.7892 28.4783 43.4281 28.839 42.9829 28.839C42.5381 28.839 42.177 28.4783 42.177 28.0331C42.177 27.5879 42.5381 27.2272 42.9829 27.2272C43.4281 27.2272 43.7892 27.5879 43.7892 28.0331Z" fill="#028F62"/>
<path d="M41.0119 28.6199C41.0119 29.0651 40.6508 29.4258 40.2056 29.4258C39.7608 29.4258 39.3997 29.0651 39.3997 28.6199C39.3997 28.1747 39.7608 27.8136 40.2056 27.8136C40.6508 27.8136 41.0119 28.1747 41.0119 28.6199Z" fill="#028F62"/>
<path d="M46.8025 35.7947C46.8025 36.2399 46.4414 36.6005 45.9962 36.6005C45.5514 36.6005 45.1903 36.2399 45.1903 35.7947C45.1903 35.3495 45.5514 34.9888 45.9962 34.9888C46.4414 34.9888 46.8025 35.3495 46.8025 35.7947Z" fill="#028F62"/>
<path d="M44.0252 36.7407C44.0252 37.1859 43.6641 37.5466 43.2189 37.5466C42.7741 37.5466 42.413 37.1859 42.413 36.7407C42.413 36.2955 42.7741 35.9344 43.2189 35.9344C43.6641 35.9344 44.0252 36.2955 44.0252 36.7407Z" fill="#028F62"/>
<path d="M41.2572 37.3277C41.2572 37.7729 40.8965 38.134 40.4513 38.134C40.0061 38.134 39.6454 37.7729 39.6454 37.3277C39.6454 36.8825 40.0061 36.5219 40.4513 36.5219C40.8965 36.5219 41.2572 36.8825 41.2572 37.3277Z" fill="#028F62"/>
<path d="M6.08361 33.1052C6.08361 33.4538 5.80137 33.736 5.45281 33.736C5.10466 33.736 4.82201 33.4538 4.82201 33.1052C4.82201 32.7571 5.10466 32.4749 5.45281 32.4749C5.80137 32.4749 6.08361 32.7571 6.08361 33.1052Z" fill="#028F62"/>
<path d="M7.51937 33.1052C7.51937 33.4538 7.23713 33.736 6.88857 33.736C6.54042 33.736 6.25777 33.4538 6.25777 33.1052C6.25777 32.7571 6.54042 32.4749 6.88857 32.4749C7.23713 32.4749 7.51937 32.7571 7.51937 33.1052Z" fill="#028F62"/>
<path d="M8.9655 33.1052C8.9655 33.4538 8.68325 33.736 8.33469 33.736C7.98654 33.736 7.70389 33.4538 7.70389 33.1052C7.70389 32.7571 7.98654 32.4749 8.33469 32.4749C8.68325 32.4749 8.9655 32.7571 8.9655 33.1052Z" fill="#028F62"/>
<path d="M6.0743 39.8068C6.0743 40.155 5.79206 40.4376 5.4435 40.4376C5.09535 40.4376 4.8127 40.155 4.8127 39.8068C4.8127 39.4583 5.09535 39.176 5.4435 39.176C5.79206 39.176 6.0743 39.4583 6.0743 39.8068Z" fill="#028F62"/>
<path d="M7.5111 39.8068C7.5111 40.155 7.22886 40.4376 6.88071 40.4376C6.53215 40.4376 6.24991 40.155 6.24991 39.8068C6.24991 39.4583 6.53215 39.176 6.88071 39.176C7.22887 39.176 7.5111 39.4583 7.5111 39.8068Z" fill="#028F62"/>
<path d="M8.95617 39.8068C8.95617 40.155 8.67393 40.4376 8.32537 40.4376C7.97721 40.4376 7.69456 40.155 7.69456 39.8068C7.69456 39.4583 7.97721 39.176 8.32537 39.176C8.67393 39.176 8.95617 39.4583 8.95617 39.8068Z" fill="#028F62"/>
<path d="M5.97804 46.7197C5.97804 47.0678 5.69579 47.3505 5.34724 47.3505C4.99908 47.3505 4.71643 47.0678 4.71643 46.7197C4.71643 46.3711 4.99908 46.0889 5.34724 46.0889C5.69579 46.0889 5.97804 46.3711 5.97804 46.7197Z" fill="#028F62"/>
<path d="M7.41484 46.7197C7.41484 47.0678 7.13259 47.3505 6.78403 47.3505C6.43588 47.3505 6.15323 47.0678 6.15323 46.7197C6.15323 46.3711 6.43588 46.0889 6.78403 46.0889C7.13259 46.0889 7.41484 46.3711 7.41484 46.7197Z" fill="#028F62"/>
<path d="M8.8599 46.7197C8.8599 47.0678 8.57766 47.3505 8.2291 47.3505C7.88095 47.3505 7.5983 47.0678 7.5983 46.7197C7.5983 46.3711 7.88095 46.0889 8.2291 46.0889C8.57766 46.0889 8.8599 46.3711 8.8599 46.7197Z" fill="#028F62"/>
<path d="M5.97803 26.8592H9.00907C9.42961 26.8592 9.76239 26.5175 9.76239 26.1059C9.76239 25.6854 9.4207 25.3526 9.00907 25.3526L5.97803 25.3522C5.5575 25.3522 5.22472 25.6939 5.22472 26.1055C5.21582 26.5175 5.5575 26.8592 5.97803 26.8592Z" fill="#028F62"/>
<path d="M21.2393 26.8592H27.9149C28.3354 26.8592 28.6682 26.5175 28.6682 26.1059C28.6682 25.6853 28.3265 25.3525 27.9149 25.3525H21.2393C20.8188 25.3525 20.486 25.6942 20.486 26.1059C20.486 26.5175 20.8277 26.8592 21.2393 26.8592Z" fill="#028F62"/>
<path d="M11.7863 26.8592H18.4618C18.8823 26.8592 19.2151 26.5175 19.2151 26.1059C19.2151 25.6853 18.8734 25.3525 18.4618 25.3525H11.7863C11.3658 25.3525 11.033 25.6942 11.033 26.1059C11.0241 26.5175 11.3658 26.8592 11.7863 26.8592Z" fill="#028F62"/>
<path d="M30.7007 26.8592H33.7317C34.1522 26.8592 34.485 26.5175 34.485 26.1059C34.485 25.6853 34.1433 25.3525 33.7317 25.3525H30.7007C30.2801 25.3525 29.9474 25.6942 29.9474 26.1059C29.9385 26.5175 30.2801 26.8592 30.7007 26.8592Z" fill="#028F62"/>
<path d="M36.9996 21.8304H2.62309C2.1326 21.8304 1.72946 22.2335 1.72946 22.724V50.048C1.72946 50.5385 2.1326 50.9416 2.62309 50.9416H36.9996C37.4901 50.9416 37.8932 50.5385 37.8932 50.048V22.7147C37.8932 22.2242 37.4901 21.83 36.9996 21.83V21.8304ZM36.3688 23.346V28.7425H3.25311V23.346H36.3688ZM27.6957 30.2669V35.5935H20.5035V30.2669H27.6957ZM18.979 35.5846H11.8655V30.258H18.979V35.5846ZM10.3496 35.5846H3.25352V30.258H10.3496V35.5846ZM10.3496 37.1091V42.462H3.25352V37.1091H10.3496ZM11.8652 37.1091H18.9787V42.462H11.8652V37.1091ZM18.9791 43.986V49.4178H11.8656V43.986H18.9791ZM20.5036 43.986H27.6958V49.4178H20.5036V43.986ZM20.5036 42.4616V37.1087H27.6958V42.4616H20.5036ZM29.2114 37.1091H36.369V42.462H29.2114V37.1091ZM29.2114 35.5846V30.258H36.369V35.5846H29.2114ZM3.25383 43.9859H10.3499V49.4177H3.25383V43.9859ZM29.2114 49.4177V43.9859H36.369V49.4177H29.2114Z" fill="#028F62"/>
<path d="M51.2527 9.38157C51.1738 8.54051 50.7796 7.40183 49.4832 6.27165C48.5107 5.42169 47.1439 4.6684 45.4355 4.04648C42.089 2.81112 37.6735 2.13672 32.995 2.13672C28.3165 2.13672 23.8924 2.81119 20.5545 4.04648C18.8461 4.67728 17.4883 5.42168 16.5068 6.27165C15.4029 7.22635 14.9477 8.19031 14.7899 8.96989H14.7111V20.8235H19.4242C17.9439 19.9913 17.3656 19.1591 17.3656 18.5809C17.3656 18.5372 17.3656 18.4932 17.3745 18.4495H17.3656V13.8063C18.233 14.3845 19.2928 14.9102 20.5459 15.3743C23.8924 16.6097 28.3079 17.2841 32.9864 17.2841C37.6649 17.2841 42.089 16.6096 45.4269 15.3743C46.6797 14.9101 47.7399 14.3845 48.6072 13.8063V18.4233H48.5983C48.6072 18.4759 48.6072 18.5284 48.6072 18.5899C48.6072 19.3958 47.5296 20.6485 44.516 21.7613C42.8954 22.3569 40.9856 22.8126 38.9003 23.1106V25.7915C41.3268 25.4672 43.5521 24.9504 45.4359 24.2585C46.6887 23.7943 47.7489 23.2687 48.6163 22.6905V27.2371H48.6074C48.6163 27.2896 48.6163 27.3422 48.6163 27.4037C48.6163 28.2096 47.5387 29.4623 44.525 30.5751C42.9044 31.1707 40.9946 31.6264 38.9093 31.9244V34.6053C41.3358 34.281 43.5611 33.7642 45.4449 33.0723C46.6977 32.6081 47.7579 32.0824 48.6253 31.5042V36.0508H48.6164C48.6253 36.1034 48.6253 36.156 48.6253 36.2174C48.6253 37.0233 47.5477 38.2761 44.534 39.3889C42.9134 39.9845 41.0036 40.4402 38.9183 40.7382L38.9179 43.3645C41.3444 43.0402 43.5697 42.5234 45.4536 41.8315C47.162 41.2007 48.5198 40.4563 49.5012 39.6063C50.9816 38.3185 51.2885 37.0306 51.2885 36.1721L51.2877 9.38227L51.2527 9.38157ZM44.5157 12.8684C41.4583 13.9986 37.367 14.6116 32.9861 14.6116C28.6146 14.6116 24.5144 13.9897 21.4565 12.8684C18.434 11.7556 17.3653 10.5029 17.3653 9.69698C17.3653 8.89109 18.4429 7.63837 21.4565 6.52557C24.5139 5.39539 28.6052 4.78237 32.9861 4.78237C37.3576 4.78237 41.4578 5.40427 44.5157 6.52557C47.5382 7.63837 48.6069 8.89111 48.6069 9.69698C48.6069 10.5029 47.5382 11.7556 44.5157 12.8684Z" fill="#028F62"/>
</svg>
