<svg width="53" height="53" viewBox="0 0 53 53" fill="none" xmlns="http://www.w3.org/2000/svg">
<path d="M30.6716 30.4397H22.3968C21.0292 30.4397 19.9169 29.3274 19.9169 27.9598C19.9169 26.5923 21.0292 25.4799 22.3968 25.4799L30.6716 25.4795C32.0392 25.4795 33.1515 26.5919 33.1515 27.9594C33.1515 29.3274 32.0392 30.4397 30.6716 30.4397ZM22.3968 26.6388C21.6665 26.6388 21.0757 27.2299 21.0757 27.9598C21.0757 28.6901 21.6669 29.2809 22.3968 29.2809H30.6716C31.4019 29.2809 31.9927 28.6897 31.9927 27.9598C31.9927 27.2295 31.4015 26.6388 30.6716 26.6388H22.3968Z" fill="#028F62"/>
<path d="M30.4284 38.5181C30.1037 38.5181 29.8489 38.263 29.8489 37.9387V30.4402H23.2082V37.9387C23.2082 38.2634 22.9531 38.5181 22.6288 38.5181C22.3041 38.5181 22.0493 38.263 22.0493 37.9387V29.8608C22.0493 29.5361 22.3045 29.2814 22.6288 29.2814H30.4285C30.7532 29.2814 31.0079 29.5365 31.0079 29.8608V37.9387C31.0079 38.2516 30.7527 38.5181 30.4284 38.5181Z" fill="#028F62"/>
<path d="M29.9532 26.6387C29.6285 26.6387 29.3738 26.3835 29.3738 26.0592C29.3738 23.185 30.7761 21.9336 31.6106 21.1802C31.8076 21.0063 32.074 20.7629 32.1205 20.6473C32.1205 20.6356 32.1088 20.6242 32.0975 20.6125L26.523 11.1323L20.9484 20.6125C20.9367 20.6356 20.9367 20.6473 20.9254 20.6473C20.9719 20.7516 21.2384 20.995 21.4353 21.1802C22.2699 21.9218 23.6722 23.1737 23.6722 26.0592C23.6722 26.3839 23.417 26.6387 23.0927 26.6387C22.768 26.6387 22.5133 26.3835 22.5133 26.0592C22.5133 23.6949 21.4469 22.7447 20.6589 22.0492C20.1025 21.5511 19.4074 20.9369 19.9403 20.0328L26.0357 9.69496C26.14 9.52108 26.3256 9.40503 26.5338 9.40503C26.7425 9.40503 26.9277 9.50935 27.032 9.69496L33.1046 20.0211C33.6376 20.9252 32.9425 21.5394 32.3861 22.0375C31.6097 22.733 30.5317 23.695 30.5317 26.0475C30.5325 26.3718 30.2774 26.6387 29.9531 26.6387L29.9532 26.6387Z" fill="#028F62"/>
<path d="M26.5351 17.7499C26.2104 17.7499 25.9557 17.4947 25.9557 17.1704V9.98497C25.9557 9.66027 26.2108 9.40552 26.5351 9.40552C26.8598 9.40552 27.1146 9.66066 27.1146 9.98497V17.1587C27.1146 17.4834 26.8477 17.7499 26.5351 17.7499Z" fill="#028F62"/>
<path d="M26.5351 21.5509C25.1676 21.5509 24.0552 20.4385 24.0552 19.071C24.0552 17.7034 25.1676 16.5911 26.5351 16.5911C27.9026 16.5911 29.015 17.7034 29.015 19.071C29.015 20.4385 27.9026 21.5509 26.5351 21.5509ZM26.5351 17.7495C25.8048 17.7495 25.214 18.3407 25.214 19.0706C25.214 19.8008 25.8052 20.3916 26.5351 20.3916C27.2654 20.3916 27.8562 19.8005 27.8562 19.0706C27.8562 18.3407 27.265 17.7495 26.5351 17.7495Z" fill="#028F62"/>
<path d="M42.7716 19.0251C42.4934 19.0251 42.25 18.8165 42.2039 18.5383C41.1142 11.6658 35.5397 6.21888 28.6444 5.30277C28.3314 5.25627 28.0997 4.96675 28.1462 4.65378C28.1927 4.34081 28.4822 4.10911 28.7952 4.15561C32.4458 4.64245 35.772 6.26474 38.4258 8.84942C41.0682 11.4337 42.7718 14.7138 43.3396 18.3527C43.3861 18.6656 43.1774 18.9669 42.8527 19.0134C42.8297 19.0247 42.8066 19.0247 42.7719 19.0247L42.7716 19.0251ZM10.2864 19.0251C10.2516 19.0251 10.2285 19.0251 10.1938 19.0134C9.88079 18.9669 9.66082 18.6656 9.70691 18.3527C10.2864 14.7252 11.9786 11.4337 14.6207 8.84942C17.2631 6.26515 20.6008 4.64244 24.2513 4.15561C24.5642 4.10911 24.8655 4.34121 24.9003 4.65378C24.9468 4.96675 24.7147 5.268 24.4021 5.30277C17.5179 6.21905 11.943 11.6658 10.8654 18.5383C10.8189 18.8165 10.5641 19.0251 10.2859 19.0251H10.2864Z" fill="#028F62"/>
<path d="M11.1786 23.4058H8.98821C8.06102 23.4058 7.30774 22.6525 7.30774 21.7254V19.5467C7.30774 18.6195 8.06105 17.8662 8.98821 17.8662H11.1786C12.1058 17.8662 12.8591 18.6195 12.8591 19.5467V21.7371C12.8587 22.6525 12.1054 23.4058 11.1786 23.4058ZM8.98821 19.0251C8.69829 19.0251 8.46659 19.2568 8.46659 19.5467V21.7371C8.46659 22.027 8.69829 22.2587 8.98821 22.2587H11.1786C11.4685 22.2587 11.7002 22.027 11.7002 21.7371L11.6998 19.5467C11.6998 19.2568 11.4681 19.0251 11.1782 19.0251H8.98821Z" fill="#028F62"/>
<path d="M44.0696 23.4058H41.8792C40.952 23.4058 40.1987 22.6525 40.1987 21.7254V19.5467C40.1987 18.6195 40.952 17.8662 41.8792 17.8662H44.0696C44.9968 17.8662 45.7501 18.6195 45.7501 19.5467V21.7371C45.7501 22.6525 44.9968 23.4058 44.0696 23.4058ZM41.8792 19.0251C41.5893 19.0251 41.3576 19.2568 41.3576 19.5467V21.7371C41.3576 22.027 41.5893 22.2587 41.8792 22.2587H44.0696C44.3595 22.2587 44.5912 22.027 44.5912 21.7371V19.5467C44.5912 19.2568 44.3595 19.0251 44.0696 19.0251H41.8792Z" fill="#028F62"/>
<path d="M27.6242 7.35373H25.4338C24.5066 7.35373 23.7533 6.60041 23.7533 5.67325V3.49456C23.7533 2.56737 24.5066 1.81409 25.4338 1.81409H27.6242C28.5513 1.81409 29.3046 2.5674 29.3046 3.49456V5.68495C29.3046 6.60042 28.5513 7.35373 27.6242 7.35373ZM25.4338 2.97295C25.1438 2.97295 24.9121 3.20464 24.9121 3.49457V5.68496C24.9121 5.97489 25.1438 6.20659 25.4338 6.20659H27.6242C27.9141 6.20659 28.1458 5.97489 28.1458 5.68496V3.49457C28.1458 3.20464 27.9141 2.97295 27.6242 2.97295H25.4338Z" fill="#028F62"/>
<path d="M8.98817 7.50483H6.79778C5.87059 7.50483 5.11731 6.75151 5.11731 5.82436V3.63396C5.11731 2.70678 5.87062 1.95349 6.79778 1.95349H8.98817C9.91536 1.95349 10.6686 2.70681 10.6686 3.63396V5.82436C10.6682 6.75155 9.91493 7.50483 8.98817 7.50483ZM6.79778 3.11225C6.50785 3.11225 6.27616 3.34395 6.27616 3.63387V5.82426C6.27616 6.11419 6.50785 6.34589 6.79778 6.34589H8.98817C9.2781 6.34589 9.5098 6.11419 9.5098 5.82426L9.50939 3.63387C9.50939 3.34395 9.27769 3.11225 8.98777 3.11225H6.79778Z" fill="#028F62"/>
<path d="M46.26 7.50483H44.0696C43.1424 7.50483 42.3892 6.75151 42.3892 5.82436V3.63396C42.3892 2.70678 43.1425 1.95349 44.0696 1.95349H46.26C47.1872 1.95349 47.9405 2.70681 47.9405 3.63396V5.82436C47.9405 6.75155 47.1872 7.50483 46.26 7.50483ZM44.0696 3.11225C43.7797 3.11225 43.548 3.34395 43.548 3.63387V5.82426C43.548 6.11419 43.7797 6.34589 44.0696 6.34589H46.26C46.55 6.34589 46.7816 6.11419 46.7816 5.82426V3.63387C46.7816 3.34395 46.55 3.11225 46.26 3.11225H44.0696Z" fill="#028F62"/>
<path d="M13.9601 5.88177C11.99 5.88177 10.0891 5.46448 9.96176 5.4297C9.64879 5.36015 9.45186 5.04718 9.52142 4.7342C9.59097 4.42123 9.90394 4.2243 10.2169 4.29385C11.4918 4.57205 15.1307 5.11672 16.6955 4.21258C18.9324 2.9146 23.9158 4.01566 24.4722 4.15475C24.7851 4.2243 24.9821 4.53728 24.9008 4.85025C24.8195 5.16322 24.5183 5.36015 24.2053 5.27887C22.8029 4.95417 18.8277 4.3169 17.2633 5.22105C16.4057 5.73135 15.1654 5.88177 13.9601 5.88177Z" fill="#028F62"/>
<path d="M39.0978 5.8817C37.8923 5.8817 36.6522 5.71955 35.795 5.22098C34.2306 4.31683 30.2553 4.95451 28.8531 5.2788C28.5401 5.34835 28.2271 5.15143 28.1576 4.85018C28.088 4.53722 28.2849 4.22424 28.5862 4.15468C29.1426 4.02731 34.1259 2.92626 36.3628 4.21251C37.9272 5.11665 41.5665 4.5833 42.8414 4.29378C43.1544 4.22423 43.4674 4.42116 43.5369 4.73413C43.6065 5.0471 43.4095 5.36008 43.0966 5.42963C42.9688 5.46481 41.0682 5.8817 39.0978 5.8817Z" fill="#028F62"/>
<path d="M15.8378 32.978H6.05638C5.73168 32.978 5.47693 32.7228 5.47693 32.3985C5.47693 32.0738 5.73207 31.8191 6.05638 31.8191H15.8378C16.1625 31.8191 16.4172 32.0742 16.4172 32.3985C16.4172 32.7232 16.1508 32.978 15.8378 32.978Z" fill="#028F62"/>
<path d="M15.8378 35.748H6.05638C5.73168 35.748 5.47693 35.4929 5.47693 35.1686C5.47693 34.8439 5.73207 34.5891 6.05638 34.5891H15.8378C16.1625 34.5891 16.4172 34.8443 16.4172 35.1686C16.4172 35.4933 16.1508 35.748 15.8378 35.748Z" fill="#028F62"/>
<path d="M10.9467 38.5181H6.05601C5.73131 38.5181 5.47656 38.263 5.47656 37.9387C5.47656 37.614 5.73171 37.3593 6.05601 37.3593H10.9467C11.2714 37.3593 11.5262 37.6144 11.5262 37.9387C11.5262 38.2634 11.2714 38.5181 10.9467 38.5181Z" fill="#028F62"/>
<path d="M47.0012 32.978H37.2315C36.9069 32.978 36.6521 32.7228 36.6521 32.3985C36.6521 32.0738 36.9072 31.8191 37.2315 31.8191H47.0012C47.3259 31.8191 47.5807 32.0742 47.5807 32.3985C47.5807 32.7232 47.326 32.978 47.0012 32.978Z" fill="#028F62"/>
<path d="M47.0012 35.748H37.2315C36.9069 35.748 36.6521 35.4929 36.6521 35.1686C36.6521 34.8439 36.9072 34.5891 37.2315 34.5891H47.0012C47.3259 34.5891 47.5807 34.8443 47.5807 35.1686C47.5807 35.4933 47.326 35.748 47.0012 35.748Z" fill="#028F62"/>
<path d="M47.0012 38.5181H42.1105C41.7858 38.5181 41.531 38.263 41.531 37.9387C41.531 37.614 41.7862 37.3593 42.1105 37.3593H47.0012C47.3259 37.3593 47.5806 37.6144 47.5806 37.9387C47.5806 38.2634 47.3259 38.5181 47.0012 38.5181Z" fill="#028F62"/>
<path d="M47.9629 44.4051H5.09395C2.78752 44.4051 0.921753 42.5276 0.921753 40.2329V14.4461C0.921753 12.1397 2.79922 10.2739 5.09395 10.2739H13.6121C13.9368 10.2739 14.1916 10.5291 14.1916 10.8534C14.1916 11.1781 13.9365 11.4328 13.6121 11.4328H5.09395C3.42518 11.4328 2.08071 12.7887 2.08071 14.4461V40.2328C2.08071 41.9016 3.43656 43.2461 5.09395 43.2461H47.9629C49.6317 43.2461 50.9761 41.8902 50.9761 40.2328V14.4461C50.9761 12.7773 49.6203 11.4328 47.9629 11.4328H39.4447C39.12 11.4328 38.8652 11.1777 38.8652 10.8534C38.8652 10.5287 39.1204 10.2739 39.4447 10.2739H47.9629C50.2693 10.2739 52.1351 12.1514 52.1351 14.4461V40.2329C52.1468 42.5276 50.2694 44.4051 47.9629 44.4051Z" fill="#028F62"/>
<path d="M31.0887 51.3592H21.9794C21.7707 51.3592 21.5855 51.2549 21.4812 51.081C21.3769 50.9071 21.3652 50.6872 21.4695 50.5133C22.5936 48.3807 22.5936 46.3411 21.4695 44.0812C21.3769 43.8955 21.3882 43.6873 21.4925 43.5134C21.5969 43.3396 21.7825 43.2352 21.9907 43.2352H31.1001C31.297 43.2352 31.4826 43.3396 31.5982 43.5134C31.7026 43.6873 31.7143 43.896 31.6213 44.0812C30.4972 46.3294 30.4972 48.3694 31.6213 50.5133C31.7139 50.6872 31.7139 50.9071 31.6096 51.081C31.483 51.2549 31.2861 51.3592 31.0887 51.3592ZM22.8835 50.2004H30.185C29.4086 48.2881 29.4199 46.3873 30.1967 44.4056H22.8721C23.6485 46.3874 23.6485 48.2882 22.8835 50.2004Z" fill="#028F62"/>
<path d="M33.8475 51.3592H19.2104C18.8857 51.3592 18.631 51.1041 18.631 50.7798C18.631 50.4551 18.8861 50.2003 19.2104 50.2003H33.8362C34.1608 50.2003 34.4156 50.4555 34.4156 50.7798C34.4156 51.1041 34.1609 51.3592 33.8479 51.3592H33.8475Z" fill="#028F62"/>
</svg>
