<svg width="53" height="53" viewBox="0 0 53 53" fill="none" xmlns="http://www.w3.org/2000/svg">
<path d="M35.346 4.00071H17.654C16.1903 4.00071 15 5.37693 15 7.06901V45.9317C15 47.6239 16.1904 49 17.654 49H35.346C36.8097 49 38 47.6238 38 45.9317L37.9997 7.06799C37.9997 5.37581 36.8093 4 35.3459 4L35.346 4.00071ZM22.077 11.1595H19.423C18.446 11.1595 17.6538 10.2436 17.6538 9.1141C17.6538 7.98456 18.446 7.0687 19.423 7.0687H22.077C23.054 7.0687 23.8462 7.98456 23.8462 9.1141C23.8462 10.2436 23.054 11.1595 22.077 11.1595Z" fill="#028F62"/>
</svg>
