<svg width="40" height="53" viewBox="0 0 40 53" fill="none" xmlns="http://www.w3.org/2000/svg">
<path d="M36.2041 46.6664L26.2252 46.6678C26.2071 45.6759 25.8063 44.7306 25.1086 44.0351C24.4104 43.3395 23.4715 42.9487 22.4932 42.9473H21.2467V40.3841C26.3204 40.061 31.0827 37.7918 34.5654 34.0378C38.0488 30.2838 39.992 25.3259 40 20.1727C38.9015 -6.72785 1.09376 -6.72063 0 20.1727C0.0083501 25.3269 1.95119 30.2843 5.4346 34.0378C8.918 37.7918 13.6799 40.0609 18.7545 40.3841V42.9473H17.508C16.5292 42.9487 15.5903 43.3395 14.8926 44.0351C14.1944 44.7307 13.7936 45.676 13.7755 46.6678C13.7769 46.6627 3.79844 46.6688 3.79666 46.6664C3.10824 46.6664 2.55018 47.2322 2.55018 47.9301C2.55018 48.6281 3.10825 49.1938 3.79666 49.1938H13.7686C13.7659 50.2017 14.1583 51.1691 14.8597 51.883C15.5611 52.597 16.514 52.9986 17.5081 53H22.4941C23.4877 52.9986 24.4406 52.5969 25.142 51.883C25.8434 51.1691 26.2359 50.2017 26.2336 49.1938H36.2055H36.2051C36.8842 49.1806 37.4279 48.6186 37.4279 47.9301C37.4279 47.2421 36.8842 46.68 36.2051 46.6664H36.2041ZM2.5101 20.1728C2.5101 19.2632 6.36462 17.374 13.8695 16.6667C13.7559 19.005 13.7559 21.342 13.8695 23.6779C6.36462 22.9706 2.5101 21.0819 2.5101 20.1728ZM16.2765 20.1728C16.2765 18.8701 16.3136 17.6486 16.3725 16.487V16.4866C18.7946 16.3596 21.2212 16.3596 23.6432 16.487C23.769 18.9421 23.769 21.4022 23.6432 23.8577C21.2212 23.9851 18.7946 23.9851 16.3725 23.8577C16.3132 22.696 16.2765 21.4751 16.2765 20.1729V20.1728ZM20.0076 2.43331C20.9048 2.43331 22.7683 6.34059 23.4655 13.9492C21.159 13.8339 18.8539 13.8339 16.5498 13.9492C17.2475 6.34059 19.1109 2.43331 20.0076 2.43331ZM37.5054 20.1728C37.5054 21.0819 33.6514 22.9706 26.1465 23.6779C26.2601 21.3396 26.2601 19.0026 26.1465 16.6667C33.6509 17.374 37.5051 19.2627 37.5051 20.1728H37.5054ZM20.0076 26.4824C21.1562 26.4824 22.3151 26.4523 23.466 26.3954C22.7683 34.0039 20.9053 37.9112 20.0076 37.9112C19.1109 37.9112 17.2475 34.0039 16.5502 26.3954C17.7007 26.4523 18.859 26.4824 20.0076 26.4824ZM23.4042 37.5783C24.917 33.9762 25.7868 30.1306 25.9738 26.2204C29.8278 26.0309 33.6184 25.15 37.1695 23.6195C36.4903 27.0635 34.8208 30.2274 32.3714 32.7115C29.9215 35.1952 26.8019 36.8888 23.4042 37.5783ZM37.1699 16.7253C33.6188 15.1944 29.8283 14.3136 25.9738 14.1241C25.7873 10.2136 24.9175 6.3678 23.4047 2.76524C26.8018 3.45472 29.922 5.14829 32.3719 7.63246C34.8212 10.1171 36.4909 13.2808 37.1699 16.7253ZM16.6129 2.76272C15.0997 6.36527 14.229 10.2124 14.0424 14.1239C10.1814 14.3124 6.38445 15.1961 2.82908 16.7331C3.5073 13.284 5.17871 10.1159 7.63177 7.62945C10.0853 5.14299 13.2107 3.44935 16.6128 2.76272H16.6129ZM2.82873 23.6109L2.82919 23.6104C6.38456 25.1474 10.1815 26.031 14.0425 26.2197C14.229 30.1312 15.0993 33.9779 16.6131 37.5803C13.2109 36.8937 10.0855 35.2001 7.63247 32.7136C5.17893 30.2271 3.50754 27.0596 2.82931 23.6104L2.82873 23.6109ZM23.7396 49.2087C23.7387 49.9062 23.1811 50.4715 22.4931 50.4724H17.5072C16.8188 50.4715 16.2612 49.9062 16.2607 49.2087V46.7382C16.2612 46.0402 16.8188 45.475 17.5072 45.4745H22.4931C23.1811 45.4749 23.7386 46.0402 23.7396 46.7382V49.2087Z" fill="#028F62"/>
</svg>
